<svg xmlns="http://www.w3.org/2000/svg" viewBox="0 0 267.73 38.55"><title>Asset 2</title><g id="Layer_2" data-name="Layer 2"><g id="Layer_1-2" data-name="Layer 1"><path d="M21.92,38.07l-3.15-10H7.32l-3.25,10H0L11.3,4.7h4L26.53,38.07ZM14.16,12.75a23.57,23.57,0,0,1-1-4h-.1a27,27,0,0,1-1,4l-4,12.66H18Z"/><path d="M31.18,38.07V0h4.27V38.07Z"/><path d="M50.63,38.31c-4.75,0-6.5-3.4-6.5-6.6V14.6h-3V11.93h3v-6L48.4,4.61v7.32H53V14.6H48.4v17c0,2.08.92,3.78,3.3,3.78A6.2,6.2,0,0,0,53,35.21v2.71A7.45,7.45,0,0,1,50.63,38.31Z"/><path d="M66.88,38.55c-6.79,0-9.94-3-9.94-7.71,0-6.93,6.5-9,14.59-9.79v-1.6c0-4-2.42-5.19-5.77-5.19a14.51,14.51,0,0,0-6.3,1.65l-1-2.53a17.28,17.28,0,0,1,8-1.94c4.85,0,9.12,2.09,9.12,8.49V36.71A18.4,18.4,0,0,1,66.88,38.55Zm4.65-15.32C64.94,24.05,61,25.46,61,30.74c0,3.79,2.33,5.34,6.21,5.34a9.48,9.48,0,0,0,4.31-.87Z"/><path d="M84.87,6.89a2.44,2.44,0,0,1-2.52-2.33,2.5,2.5,0,0,1,5,0A2.43,2.43,0,0,1,84.87,6.89ZM82.74,38.07V11.93H87V38.07Z"/><path d="M104.37,14.74a7.67,7.67,0,0,0-6,.49V38.07H94.14V13.33c2.57-1.3,5-2,11.25-1.84Z"/><path d="M141.13,38.07l-2-7.13h-10l-2.13,7.13h-7L130.75,4.7h7.66l10.82,33.37Zm-6.06-22.5a25.82,25.82,0,0,1-.78-4h-.1a27.88,27.88,0,0,1-.87,4l-3.1,10.86H138Z"/><path d="M162.13,38.55c-6.21,0-10.76-4.85-10.76-13.63s4.89-13.48,10.71-13.48a9.85,9.85,0,0,1,6.4,1.89l-1.55,4.18a4.67,4.67,0,0,0-3.1-1c-3.3,0-4.85,3-4.85,8.34s1.79,8.34,4.8,8.34a4.47,4.47,0,0,0,3.15-1.07l1.6,4.56C167.42,37.73,165.43,38.55,162.13,38.55Z"/><path d="M181.53,38.55c-6.21,0-10.76-4.85-10.76-13.63s4.89-13.48,10.71-13.48a9.85,9.85,0,0,1,6.4,1.89l-1.55,4.18a4.67,4.67,0,0,0-3.1-1c-3.3,0-4.85,3-4.85,8.34s1.79,8.34,4.8,8.34a4.47,4.47,0,0,0,3.15-1.07l1.6,4.56C186.82,37.73,184.83,38.55,181.53,38.55Z"/><path d="M197.34,27.64c.54,3.83,2.48,5.72,6.31,5.72a15.28,15.28,0,0,0,6.79-1.4l1.7,4.7a20.41,20.41,0,0,1-9.36,1.89c-8,0-12.61-5.28-12.61-13.63,0-8.19,4.27-13.48,11.78-13.48s11.4,5.14,11.06,14Zm4.32-11.73c-3.1,0-5,2.66-4.8,8.05L206,22.6C206,17.94,204.42,15.91,201.66,15.91Z"/><path d="M223.82,38.5a14.64,14.64,0,0,1-7.66-1.89l1.94-4.8a7.92,7.92,0,0,0,4.66,1.5A2.94,2.94,0,0,0,226,30.45c0-1.74-.92-2.71-3.35-3.68-4.8-1.89-5.87-4.56-5.87-7.28,0-4.46,3.49-8,8.73-8A13.41,13.41,0,0,1,233,13.33l-1.84,4.32a6.68,6.68,0,0,0-4-1.36,2.69,2.69,0,0,0-3,2.72c0,1.74,1.31,2.71,3.35,3.59,5,2.13,6.21,4.6,6.21,7.66C233.77,34.82,230,38.5,223.82,38.5Z"/><path d="M244.05,38.5a14.64,14.64,0,0,1-7.66-1.89l1.94-4.8a7.89,7.89,0,0,0,4.65,1.5,2.94,2.94,0,0,0,3.25-2.86c0-1.74-.92-2.71-3.34-3.68-4.8-1.89-5.87-4.56-5.87-7.28,0-4.46,3.49-8,8.73-8a13.35,13.35,0,0,1,7.51,1.89l-1.84,4.32a6.65,6.65,0,0,0-4-1.36,2.69,2.69,0,0,0-3,2.72c0,1.74,1.31,2.71,3.34,3.59,5.05,2.13,6.21,4.6,6.21,7.66C254,34.82,250.26,38.5,244.05,38.5Z"/><path d="M259.13,5.65v4.69h-1.21V5.65h-1.53V4.73h4.25v.92Zm7.42,4.69-.5-4.26-1.27,4.26h-1.09l-1.28-4.25-.48,4.25h-1.19l.82-5.61h1.52L264.26,9l1.11-4.22h1.54l.82,5.61Z"/></g></g></svg>