<svg xmlns="http://www.w3.org/2000/svg" viewBox="0 0 12 12"><title>unity_user_login</title><g id="Layer_2" data-name="Layer 2"><g id="Layer_1-2" data-name="Layer 1"><g id="Layer_2-2" data-name="Layer 2"><g id="Layer_1-2-2" data-name="Layer 1-2"><path d="M12,12h-.93c0-1.15-2-2.41-5.12-2.41S1,10.84,1,12H0c0-1.92,2.6-3.37,6-3.37S12,10.08,12,12Z"/><path d="M6,.91a2.3,2.3,0,0,1,1.66.71,2.45,2.45,0,0,1,.69,1.72A3.78,3.78,0,0,1,8.14,4.5a4.56,4.56,0,0,1-.58,1.17A2.15,2.15,0,0,1,6,6.77,2.11,2.11,0,0,1,4.43,5.68a4.56,4.56,0,0,1-.58-1.17,3.78,3.78,0,0,1-.21-1.16,2.45,2.45,0,0,1,.69-1.72A2.29,2.29,0,0,1,6,.91M6,0A3.29,3.29,0,0,0,2.76,3.34h0C2.76,5.2,4.21,7.68,6,7.68S9.23,5.2,9.23,3.35A3.29,3.29,0,0,0,6,0Z"/></g></g></g></g></svg>