<?xml version="1.0" encoding="UTF-8"?>
<svg width="14px" height="22px" viewBox="0 0 14 22" version="1.1" xmlns="http://www.w3.org/2000/svg" xmlns:xlink="http://www.w3.org/1999/xlink">
    <!-- Generator: Sketch 47.1 (45422) - http://www.bohemiancoding.com/sketch -->
    <title></title>
    <desc>Created with Sketch.</desc>
    <defs></defs>
    <g id="Page-1" stroke="none" stroke-width="1" fill="none" fill-rule="evenodd">
        <path d="M12.25,7.25 C12.74219,7.25 13.1568994,7.41861811 13.4941406,7.75585938 C13.8313819,8.09310064 14,8.50781004 14,9 L14,19.5 C14,19.99219 13.8313819,20.4068994 13.4941406,20.7441406 C13.1568994,21.0813819 12.74219,21.25 12.25,21.25 L1.75,21.25 C1.25781004,21.25 0.843100645,21.0813819 0.505859375,20.7441406 C0.168618105,20.4068994 0,19.99219 0,19.5 L0,9 C0,8.50781004 0.168618105,8.09310064 0.505859375,7.75585938 C0.843100645,7.41861811 1.25781004,7.25 1.75,7.25 L1.75,5.5 C1.75,4.04165937 2.26041156,2.80208844 3.28125,1.78125 C4.30208844,0.760411562 5.54165937,0.25 7,0.25 C8.45834063,0.25 9.69791156,0.760411562 10.71875,1.78125 C11.7395884,2.80208844 12.25,4.04165937 12.25,5.5 L12.25,7.25 Z M7,16 C7.49218996,16 7.90689936,15.8313819 8.24414062,15.4941406 C8.58138189,15.1568994 8.75,14.74219 8.75,14.25 C8.75,13.75781 8.58138189,13.3431006 8.24414062,13.0058594 C7.90689936,12.6686181 7.49218996,12.5 7,12.5 C6.50781004,12.5 6.09310064,12.6686181 5.75585938,13.0058594 C5.41861811,13.3431006 5.25,13.75781 5.25,14.25 C5.25,14.74219 5.41861811,15.1568994 5.75585938,15.4941406 C6.09310064,15.8313819 6.50781004,16 7,16 Z M10.5,7.25 L10.5,5.5 C10.5,4.53384934 10.1582065,3.70898779 9.47460938,3.02539062 C8.79101221,2.34179346 7.96615066,2 7,2 C6.03384934,2 5.20898779,2.34179346 4.52539062,3.02539062 C3.84179346,3.70898779 3.5,4.53384934 3.5,5.5 L3.5,7.25 L10.5,7.25 Z" id="" fill="#1D2E38"></path>
    </g>
</svg>